HIERARCHY
ROOT Hips
{
	OFFSET 0.00000 0.00000 0.00000
	CHANNELS 6 Xposition Yposition Zposition Zrotation Yrotation Xrotation 
	JOINT LHipJoint
	{
		OFFSET 0 0 0
		CHANNELS 3 Zrotation Yrotation Xrotation
		JOINT LeftUpLeg
		{
			OFFSET 1.57358 -1.76629 0.73362
			CHANNELS 3 Zrotation Yrotation Xrotation
			JOINT LeftLeg
			{
				OFFSET 2.40600 -6.61045 0.00000
				CHANNELS 3 Zrotation Yrotation Xrotation
				JOINT LeftFoot
				{
					OFFSET 2.66168 -7.31291 0.00000
					CHANNELS 3 Zrotation Yrotation Xrotation
					JOINT LeftToeBase
					{
						OFFSET 0.20870 -0.57341 2.12506
						CHANNELS 3 Zrotation Yrotation Xrotation
						End Site
						{
							OFFSET 0.00000 -0.00000 1.10557
						}
					}
				}
			}
		}
	}
	JOINT RHipJoint
	{
		OFFSET 0 0 0
		CHANNELS 3 Zrotation Yrotation Xrotation
		JOINT RightUpLeg
		{
			OFFSET -1.49299 -1.76629 0.73362
			CHANNELS 3 Zrotation Yrotation Xrotation
			JOINT RightLeg
			{
				OFFSET -2.43663 -6.69460 0.00000
				CHANNELS 3 Zrotation Yrotation Xrotation
				JOINT RightFoot
				{
					OFFSET -2.62959 -7.22474 0.00000
					CHANNELS 3 Zrotation Yrotation Xrotation
					JOINT RightToeBase
					{
						OFFSET -0.25784 -0.70841 2.21862
						CHANNELS 3 Zrotation Yrotation Xrotation
						End Site
						{
							OFFSET -0.00000 -0.00000 1.16452
						}
					}
				}
			}
		}
	}
	JOINT LowerBack
	{
		OFFSET 0 0 0
		CHANNELS 3 Zrotation Yrotation Xrotation
		JOINT Spine
		{
			OFFSET -0.00034 2.12399 -0.25450
			CHANNELS 3 Zrotation Yrotation Xrotation
			JOINT Spine1
			{
				OFFSET 0.05594 2.14379 -0.03318
				CHANNELS 3 Zrotation Yrotation Xrotation
				JOINT Neck
				{
					OFFSET 0 0 0
					CHANNELS 3 Zrotation Yrotation Xrotation
					JOINT Neck1
					{
						OFFSET -0.09835 1.62725 0.24211
						CHANNELS 3 Zrotation Yrotation Xrotation
						JOINT Head
						{
							OFFSET 0.10849 1.66041 -0.22648
							CHANNELS 3 Zrotation Yrotation Xrotation
							End Site
							{
								OFFSET 0.04385 1.68267 -0.10541
							}
						}
					}
				}
				JOINT LeftShoulder
				{
					OFFSET 0 0 0
					CHANNELS 3 Zrotation Yrotation Xrotation
					JOINT LeftArm
					{
						OFFSET 3.29108 0.79398 -0.68179
						CHANNELS 3 Zrotation Yrotation Xrotation
						JOINT LeftForeArm
						{
							OFFSET 5.15310 -0.00000 -0.00000
							CHANNELS 3 Zrotation Yrotation Xrotation
							JOINT LeftHand
							{
								OFFSET 3.75138 -0.00000 -0.00000
								CHANNELS 3 Zrotation Yrotation Xrotation
								JOINT LeftFingerBase
								{
									OFFSET 0 0 0
									CHANNELS 3 Zrotation Yrotation Xrotation
									JOINT LeftHandIndex1
									{
										OFFSET 0.52917 -0.00000 0.00000
										CHANNELS 3 Zrotation Yrotation Xrotation
										End Site
										{
											OFFSET 0.42663 -0.00000 0.00000
										}
									}
								}
								JOINT LThumb
								{
									OFFSET 0 0 0
									CHANNELS 3 Zrotation Yrotation Xrotation
									End Site
									{
										OFFSET 0.43315 -0.00000 0.43315
									}
								}
							}
						}
					}
				}
				JOINT RightShoulder
				{
					OFFSET 0 0 0
					CHANNELS 3 Zrotation Yrotation Xrotation
					JOINT RightArm
					{
						OFFSET -3.07414 1.06285 -0.44338
						CHANNELS 3 Zrotation Yrotation Xrotation
						JOINT RightForeArm
						{
							OFFSET -5.29613 -0.00000 0.00000
							CHANNELS 3 Zrotation Yrotation Xrotation
							JOINT RightHand
							{
								OFFSET -3.76144 -0.00000 -0.00000
								CHANNELS 3 Zrotation Yrotation Xrotation
								JOINT RightFingerBase
								{
									OFFSET 0 0 0
									CHANNELS 3 Zrotation Yrotation Xrotation
									JOINT RightHandIndex1
									{
										OFFSET -0.74732 -0.00000 0.00000
										CHANNELS 3 Zrotation Yrotation Xrotation
										End Site
										{
											OFFSET -0.60251 -0.00000 0.00000
										}
									}
								}
								JOINT RThumb
								{
									OFFSET 0 0 0
									CHANNELS 3 Zrotation Yrotation Xrotation
									End Site
									{
										OFFSET -0.61171 -0.00000 0.61171
									}
								}
							}
						}
					}
				}
			}
		}
	}
}
MOTION
Frames: 5
Frame Time: .0083333
-8.066400 17.230300 -31.872200 6.671800 1.567400 0.675300 0.000000 0.000000 0.000000 -30.263700 1.767500 11.724700 0.942500 6.183300 17.317200 0.484700 -6.437900 -12.517400 0.824800 -5.794400 -16.189000 0.000000 0.000000 0.000000 13.675500 8.887800 -25.985600 -1.080900 -6.608100 18.559300 0.069400 -6.032300 -6.270800 -0.083200 1.860200 -5.119500 -8.722400 -4.371100 4.698800 2.223300 -6.252100 0.010200 7.517400 -3.064600 -1.438000 -11.983000 -0.277500 -11.375600 4.693700 1.012300 17.048700 3.599700 0.127900 7.018300 0.000000 -0.000000 0.000000 -88.999000 -3.943500 13.754700 16.778600 -26.565000 -3.987800 -0.000000 -0.000000 7.582100 19.644300 25.332200 8.683600 -7.125000 0.000000 -0.000000 -10.956400 56.329100 -3.069700 0.000000 -0.000000 0.000000 86.209000 -5.046200 9.626000 -13.261600 21.669400 -2.549100 0.000000 0.000000 11.347700 -11.144400 12.522500 -2.445800 7.125000 -0.000000 -0.000000 11.157400 -17.368700 7.461500
-8.081300 17.232100 -31.728400 6.728600 -0.923800 1.025800 0.000000 0.000000 0.000000 -30.814900 2.667000 11.098900 0.970700 6.272600 17.577600 0.483300 -5.114900 -12.383900 1.121400 -6.726800 -18.908500 0.000000 0.000000 0.000000 13.982700 10.230500 -26.574400 -1.157900 -6.831600 19.217400 0.060400 -4.826600 -3.980100 -0.121700 2.249200 -6.194800 -9.786300 -3.524200 6.012800 2.962900 -5.337200 -1.193900 9.080200 -2.423900 -3.458800 -12.462100 -0.143600 -11.124100 4.148400 1.353200 17.727600 3.538200 0.186300 7.175200 0.000000 -0.000000 0.000000 -90.356200 -2.404500 13.114400 16.710300 -26.474300 -3.957300 -0.000000 -0.000000 8.186100 20.335000 24.650600 8.786900 -7.125000 0.000000 -0.000000 -9.918300 55.781900 -2.642600 0.000000 -0.000000 0.000000 84.849700 -6.608200 10.420800 -13.309600 21.739200 -2.566800 0.000000 0.000000 10.913300 -11.514900 12.427000 -2.510300 7.125000 -0.000000 -0.000000 10.904900 -17.442300 7.268300
-8.108400 17.284500 -31.521800 6.443700 1.019900 0.844400 0.000000 0.000000 0.000000 -30.148700 1.431900 12.386700 1.006100 6.382500 17.898300 0.406600 -5.613500 -11.425800 1.360100 -7.382000 -20.852000 0.000000 0.000000 0.000000 14.000400 9.753200 -25.748700 -1.203100 -6.958900 19.593700 0.124400 -6.383100 -3.752700 -0.103000 2.069200 -5.697000 -9.253300 -3.650300 6.599700 2.881600 -5.519600 -1.164800 8.749500 -2.508100 -3.772900 -12.067400 -0.720800 -12.087900 4.036600 0.643700 18.188300 3.388900 -0.146900 7.561300 -0.000000 0.000000 0.000000 -90.228800 -2.591300 14.346100 16.589600 -26.313600 -3.903700 -0.000000 -0.000000 8.567600 20.804600 24.645000 9.003100 -7.125000 0.000000 -0.000000 -9.425000 55.872600 -2.530300 -0.000000 0.000000 0.000000 85.392900 -6.691400 8.625900 -13.344900 21.790500 -2.579900 0.000000 0.000000 10.824200 -11.104400 12.946200 -2.517800 7.125000 -0.000000 -0.000000 11.171900 -16.948500 7.576400
-8.133600 17.312100 -31.330600 6.160400 1.586300 0.760300 0.000000 0.000000 0.000000 -29.778600 0.817500 12.889200 1.091200 6.638400 18.648500 0.306800 -5.628300 -10.021800 1.428200 -7.556700 -21.375500 0.000000 0.000000 0.000000 14.234700 9.728900 -25.079000 -1.203700 -6.960700 19.599000 0.157000 -7.031100 -3.207100 -0.072900 1.741900 -4.792900 -9.503100 -4.355100 6.721600 3.497900 -6.487700 -1.631600 9.652800 -2.946500 -4.032000 -12.893800 -0.096900 -11.012200 3.905100 1.530300 18.034500 3.548200 0.207800 7.245600 0.000000 0.000000 0.000000 -91.358200 -1.227600 12.573000 16.721700 -26.489400 -3.962400 -0.000000 -0.000000 8.265800 20.613100 23.900900 8.664800 -7.125000 0.000000 -0.000000 -9.304000 55.074600 -2.316500 0.000000 0.000000 0.000000 84.164700 -7.300600 9.941200 -13.162000 21.524200 -2.512400 0.000000 0.000000 10.629300 -10.479400 13.682700 -2.505300 7.125000 -0.000000 -0.000000 11.577200 -16.253900 8.041700
-8.151900 17.338600 -31.153400 5.846900 1.532900 0.778700 0.000000 0.000000 0.000000 -29.560400 0.302900 12.973000 1.208300 6.973500 19.636900 0.226000 -5.201600 -8.664600 1.447500 -7.605400 -21.521900 0.000000 0.000000 0.000000 14.670100 9.639100 -24.630300 -1.192600 -6.929800 19.507600 0.145400 -6.746200 -2.387300 -0.046500 1.391200 -3.825800 -9.618700 -4.843200 6.769400 4.038500 -7.147700 -2.023400 10.373800 -3.239300 -4.242300 -13.511400 0.548900 -10.353900 3.816200 2.441100 17.905900 3.684000 0.597500 7.005300 -0.000000 0.000000 0.000000 -92.426600 -0.258000 10.486500 16.764500 -26.546200 -3.981500 -0.000000 -0.000000 8.575800 20.189900 24.026400 8.515300 -7.125000 0.000000 -0.000000 -9.795300 55.118200 -2.450900 -0.000000 0.000000 0.000000 83.089700 -7.837200 11.578100 -13.152200 21.509800 -2.508800 0.000000 0.000000 10.179800 -10.535200 13.531000 -2.491500 7.125000 -0.000000 -0.000000 11.543700 -16.401200 7.979800
